<svg xmlns="http://www.w3.org/2000/svg" xmlns:xlink="http://www.w3.org/1999/xlink"><symbol id="icon-facebook" viewBox="0 0 8.673 18.944">
    <path d="M6.275 3.357h2.398V0H5.795C2.656.181 1.54 2.387 1.948 6.115H0v3.517h1.958v9.312h3.837V9.632h2.857V6.115H5.786c-.021-1.045-.036-2.406.489-2.758z"/>
</symbol><symbol id="icon-heart-svg-copy-5" viewBox="521.939 473.064 12.545 11.99">
    <path fill="#d22856" d="M528.174 485.055c-.212 0-.412-.091-.552-.249-3.798-4.324-4.644-5.298-4.858-5.572h-.004c-.529-.675-.821-1.518-.821-2.373 0-2.095 1.704-3.799 3.799-3.799.934 0 1.804.32 2.484.898.696-.578 1.56-.898 2.463-.898 2.095 0 3.799 1.704 3.799 3.799 0 .909-.318 1.754-.896 2.381l-4.86 5.561c-.141.161-.342.252-.554.252zm-4.245-6.706c.208.255 2.471 2.839 4.243 4.858l4.323-4.944c.34-.369.52-.86.52-1.399 0-1.285-1.045-2.331-2.33-2.331-.729 0-1.421.344-1.9.943-.142.178-.353.267-.585.275-.227-.003-.439-.111-.575-.294-.441-.587-1.129-.925-1.887-.925-1.285 0-2.33 1.046-2.33 2.331 0 .678.275 1.171.507 1.467l.014.019z"/>
</symbol><symbol id="icon-youtube" viewBox="0 0 14.64 13.96">
    <path d="M1.775 13.78C.799 14.257 0 13.758 0 12.671V1.29C0 .202.799-.295 1.775.181l12.133 5.932c.975.478.975 1.258 0 1.736L1.775 13.78z"/>
</symbol></svg>